<svg width="15" height="14" viewBox="0 0 15 14" fill="none" xmlns="http://www.w3.org/2000/svg">
<g id="A" clip-path="url(#clip0_12_131)">
<g id="Clip path group">
<mask id="mask0_12_131" style="mask-type:luminance" maskUnits="userSpaceOnUse" x="0" y="0" width="15" height="14">
<g id="a">
<path id="Vector" d="M0 0H14.875V14H0V0Z" fill="white"/>
</g>
</mask>
<g mask="url(#mask0_12_131)">
<g id="Group">
<path id="Vector_2" d="M14.4836 12.1579C14.4836 12.5488 14.3186 12.9236 14.0249 13.2C13.7313 13.4763 13.333 13.6316 12.9178 13.6316H1.95724C1.54197 13.6316 1.1437 13.4763 0.850058 13.2C0.556416 12.9236 0.391449 12.5488 0.391449 12.1579V1.84212C0.391449 1.45127 0.556416 1.07644 0.850058 0.800065C1.1437 0.523696 1.54197 0.368433 1.95724 0.368433H12.9178C13.333 0.368433 13.7313 0.523696 14.0249 0.800065C14.3186 1.07644 14.4836 1.45127 14.4836 1.84212V12.1579Z" fill="#2F2F2F"/>
<path id="Vector_3" d="M6.29721 7.8769H8.60323L7.47468 4.56406H7.45041L6.29721 7.8769ZM6.16373 3.72995C6.37041 3.20459 6.84367 2.78201 7.46255 2.78201C8.1057 2.78201 8.55508 3.18174 8.76098 3.72995L11.1402 9.94411C11.2126 10.1268 11.2373 10.2871 11.2373 10.3671C11.2373 10.8125 10.8486 11.1208 10.4 11.1208C9.88991 11.1208 9.63508 10.8696 9.51373 10.527L9.14969 9.45301H5.77541L5.41136 10.5155C5.29002 10.8696 5.03479 11.1208 4.53726 11.1208C4.05187 11.1208 3.63928 10.7782 3.63928 10.3214C3.63928 10.1386 3.69996 10.0016 3.72423 9.94411L6.16373 3.72995Z" fill="#B3B3B3"/>
</g>
</g>
</g>
</g>
<defs>
<clipPath id="clip0_12_131">
<rect width="14.875" height="14" fill="white"/>
</clipPath>
</defs>
</svg>
