<svg xmlns="http://www.w3.org/2000/svg" width="15" height="14" fill="none" viewBox="0 0 15 14"><path fill="#fff" d="M12.6667 0H1.58333C0.704583 0 0 0.7 0 1.55556V12.4444C0 13.3 0.704583 14 1.58333 14H12.6667C13.5375 14 14.25 13.3 14.25 12.4444V1.55556C14.25 0.7 13.5375 0 12.6667 0ZM12.6667 12.4444H1.58333V1.55556H12.6667V12.4444ZM3.5625 7.77778H5.14583V9.33333H6.33333V4.66667H5.14583V6.61111H3.5625V4.66667H2.375V9.33333H3.5625V7.77778ZM11.875 8.55556V5.44444C11.875 5.01667 11.5188 4.66667 11.0833 4.66667H7.91667V9.33333H11.0833C11.5188 9.33333 11.875 8.98333 11.875 8.55556ZM10.6875 8.16667H9.10417V5.83333H10.6875V8.16667Z"/></svg>